<?xml version="1.0" encoding="UTF-8" standalone="no"?>
<!-- Created with Inkscape (http://www.inkscape.org/) -->

<svg
   xmlns:dc="http://purl.org/dc/elements/1.1/"
   xmlns:cc="http://creativecommons.org/ns#"
   xmlns:rdf="http://www.w3.org/1999/02/22-rdf-syntax-ns#"
   xmlns:svg="http://www.w3.org/2000/svg"
   xmlns="http://www.w3.org/2000/svg"
   xmlns:sodipodi="http://sodipodi.sourceforge.net/DTD/sodipodi-0.dtd"
   xmlns:inkscape="http://www.inkscape.org/namespaces/inkscape"
   width="210mm"
   height="297mm"
   viewBox="0 0 210 297"
   version="1.1"
   id="svg8"
   inkscape:version="0.92.1 r15371"
   sodipodi:docname="drawing.svg">
  <defs
     id="defs2" />
  <sodipodi:namedview
     id="base"
     pagecolor="#ffffff"
     bordercolor="#666666"
     borderopacity="1.0"
     inkscape:pageopacity="0.0"
     inkscape:pageshadow="2"
     inkscape:zoom="0.35"
     inkscape:cx="400"
     inkscape:cy="560"
     inkscape:document-units="mm"
     inkscape:current-layer="layer1"
     showgrid="false"
     inkscape:window-width="1366"
     inkscape:window-height="705"
     inkscape:window-x="-8"
     inkscape:window-y="-8"
     inkscape:window-maximized="1" />
  <metadata
     id="metadata5">
    <rdf:RDF>
      <cc:Work
         rdf:about="">
        <dc:format>image/svg+xml</dc:format>
        <dc:type
           rdf:resource="http://purl.org/dc/dcmitype/StillImage" />
        <dc:title></dc:title>
      </cc:Work>
    </rdf:RDF>
  </metadata>
  <g
     inkscape:label="Layer 1"
     inkscape:groupmode="layer"
     id="layer1">
    <g
       aria-label="بسم الله الرحمن الرحيم"
       transform="scale(0.81295718,1.2300771)"
       style="font-style:normal;font-weight:normal;font-size:20.8915062px;line-height:1.25;font-family:sans-serif;letter-spacing:0px;word-spacing:0px;fill:#000000;fill-opacity:1;stroke:none;stroke-width:0.52228761"
       id="text3682">
      <path
         d="m 218.00955,51.488399 h -5.81453 v -1.774962 h 5.06987 q 0,-1.203709 -0.28563,-1.836167 -0.19382,-0.43864 -0.95889,-1.264916 l 0.79567,-1.662751 q 0.73447,0.928284 0.91809,1.448532 0.27542,0.785472 0.27542,2.601237 z m -1.04049,2.478826 -0.79567,1.479135 -1.65255,-0.856878 0.75486,-1.489336 z"
         style="stroke-width:0.52228761"
         id="path3684" />
      <path
         d="m 212.89888,51.488399 h -0.78547 q -0.65286,0 -1.1221,-0.173416 -0.46924,-0.183616 -0.85688,-0.510046 -0.47944,0.377434 -0.83648,0.499846 -0.52024,0.183616 -1.42813,0.183616 h -0.66306 q -0.53045,0 -1.06089,-0.204018 -0.34684,-0.132612 -0.85688,-0.43864 -0.48965,0.367233 -0.89768,0.510046 -0.40804,0.132612 -1.32612,0.132612 h -1.96878 v -1.774962 h 1.96878 q 0.82627,0 1.1833,-0.142813 0.59166,-0.234621 0.59166,-0.938485 0,-0.295827 -0.0306,-0.591654 -0.0306,-0.295827 -0.11221,-0.663061 l 0.41824,-0.612056 q 0.28563,0.938486 0.46924,1.366925 0.32643,0.744668 0.71407,1.122102 0.46924,0.459042 1.1221,0.459042 h 0.68346 q 0.76507,0 1.13231,-0.234621 0.40804,-0.265224 0.40804,-0.846677 0,-0.316229 -0.0408,-0.612056 -0.0408,-0.295827 -0.11221,-0.642659 l 0.42844,-0.612056 0.21422,0.958888 q 0.27543,1.132303 0.67326,1.570943 0.34683,0.387636 0.93849,0.387636 0.27542,0 0.43864,-0.163215 0.17341,-0.173416 0.17341,-0.43864 0,-0.571252 -0.41824,-1.20371 -0.0714,-0.102009 -0.49984,-0.663061 l 0.66306,-1.111901 q 0.41824,0.632458 0.57125,1.091499 0.22442,0.693664 0.22442,1.846369 z"
         style="stroke-width:0.52228761"
         id="path3686" />
      <path
         d="m 201.81047,51.488399 h -1.21391 q -1.69335,0 -2.95827,0.316229 -1.60155,0.397836 -1.60155,1.142504 0,0.673262 0.22442,1.438332 0.23463,0.765069 0.46925,1.550541 0.24482,0.785472 0.24482,1.438331 0,0.387636 -0.0612,0.703865 -0.051,0.316228 -0.19381,0.826275 -0.26523,-0.846677 -0.52025,-1.693355 -0.48965,-1.611747 -0.72427,-2.438022 -0.36723,-1.305719 -0.36723,-1.570943 0,-1.305719 0.54065,-1.999383 0.55085,-0.703864 1.68315,-1.040495 0.89768,-0.265224 2.70325,-0.448841 -0.64266,-0.652859 -0.79567,-0.77527 -0.52025,-0.408038 -1.0507,-0.408038 -0.33663,0 -0.64266,0.204019 -0.24482,0.163215 -0.59165,0.561051 l -0.46925,-0.295827 q 0.30603,-0.76507 0.69367,-1.224111 0.64266,-0.754869 1.51994,-0.754869 0.63245,0 1.26491,0.469242 0.52025,0.387636 1.0609,1.081299 0.26522,0.336631 0.78547,1.142504 z"
         style="stroke-width:0.52228761"
         id="path3688" />
      <path
         d="m 184.87693,48.907564 q 0,0.387635 -0.0918,0.693663 -0.0408,0.142813 -0.10201,0.336631 -0.0612,0.183617 -0.13261,0.377434 -0.0714,0.193818 -0.14281,0.377435 -0.0612,0.173416 -0.11221,0.295827 l -0.16322,0.377434 q -0.48964,-0.0204 -0.91808,-0.09181 -0.42844,-0.08161 -0.83648,-0.224421 -0.32643,-0.11221 -0.54065,-0.306028 -0.21422,-0.204018 -0.39783,-0.499845 -0.22442,0.32643 -0.45905,0.561051 -0.23462,0.22442 -0.52024,0.397836 -0.12241,0.07141 -0.28563,0.142813 -0.16321,0.07141 -0.34683,0.132612 -0.18362,0.06121 -0.36723,0.10201 -0.18362,0.0306 -0.34684,0.0306 -0.32643,0 -0.64265,-0.07141 -0.30603,-0.08161 -0.58146,-0.285626 -0.26522,-0.193818 -0.42844,-0.520248 -0.16321,-0.326429 -0.27542,-0.632457 -0.41824,0.601855 -0.97929,0.999691 -0.57125,0.387635 -1.1119,0.387635 -0.57125,0 -1.0303,-0.0408 -0.45904,-0.051 -0.78547,-0.122412 -0.32643,-0.08161 -0.49984,-0.193817 -0.17342,-0.11221 -0.17342,-0.244823 0,-0.214219 0.12241,-0.520247 0.12241,-0.306028 0.32643,-0.642659 0.21422,-0.33663 0.47945,-0.673261 0.26522,-0.336631 0.55085,-0.612056 0.11221,-0.11221 0.36723,-0.265224 0.25502,-0.153014 0.59165,-0.32643 0.33663,-0.183617 0.73447,-0.377434 0.40804,-0.193818 0.82628,-0.387636 -0.0204,-0.07141 -0.051,-0.183617 -0.0204,-0.11221 -0.051,-0.234621 -0.0204,-0.122411 -0.0408,-0.22442 -0.0102,-0.112211 -0.0102,-0.193818 0,-0.336631 0.23462,-0.775271 0.19382,-0.346831 0.52025,-0.734467 l 0.27543,1.672953 q 0.11221,0.632458 0.21422,1.213911 0.11221,0.571252 0.22442,1.122102 0.12241,0.561051 0.41823,0.856878 0.30603,0.285626 0.88748,0.285626 0.23463,0 0.44885,-0.07141 0.21422,-0.08161 0.35703,-0.183617 0.12241,-0.08161 0.28562,-0.234621 0.17342,-0.163215 0.37744,-0.469243 l -0.60186,-2.784854 q -0.0408,-0.163215 -0.0612,-0.295827 -0.0204,-0.132612 -0.0408,-0.234622 -0.0408,-0.204018 -0.0612,-0.346831 -0.0102,-0.142813 -0.0102,-0.224421 0,-0.346832 0.23462,-0.785472 0.10201,-0.173415 0.22442,-0.346831 0.13261,-0.183617 0.29583,-0.377435 l 0.20402,1.132304 0.63245,3.141886 q 0.0816,0.43864 0.23462,0.754869 0.16322,0.316229 0.35704,0.55085 0.10201,0.122412 0.27542,0.234622 0.17342,0.11221 0.37744,0.204018 0.21422,0.09181 0.43864,0.153014 0.23462,0.06121 0.43864,0.06121 0.14281,0 0.22442,-0.06121 0.0816,-0.0612 0.10201,-0.33663 l -0.80588,-3.753943 q -0.0204,-0.204018 -0.0408,-0.346831 -0.0102,-0.142813 -0.0102,-0.224421 0,-0.336631 0.23462,-0.785472 0.10201,-0.193817 0.22442,-0.367233 0.13261,-0.183617 0.27543,-0.357033 0.0204,0.132612 0.102,0.54065 0.0918,0.397836 0.24483,1.091499 0.0918,0.418238 0.15301,0.714065 0.0714,0.295827 0.12241,0.530449 0.0612,0.234621 0.10201,0.428439 0.0408,0.193818 0.0816,0.408037 0.0714,0.367234 0.11221,0.622257 0.051,0.255023 0.0714,0.448841 0.0306,0.183617 0.0408,0.32643 0.0102,0.142813 0.0102,0.265224 z m -7.90572,0.469243 -0.19382,-1.132304 q -0.45904,0.163215 -0.87728,0.32643 -0.40804,0.163215 -0.65286,0.306028 -0.21422,0.132612 -0.38763,0.397836 -0.16322,0.255024 -0.33663,0.54065 0.22442,0.09181 0.49984,0.142813 0.28563,0.051 0.79567,0.051 0.28563,0 0.59166,-0.163215 0.30603,-0.173415 0.56105,-0.469242 z m 11.10881,-0.489645 q 0,0.816074 -0.29582,1.581144 -0.15302,0.408037 -0.66306,1.295518 l -0.18362,-0.102009 q 0.0306,-0.295827 0.051,-0.683462 0.0306,-0.387636 0.0306,-0.520248 0,-1.060896 -0.17342,-2.95827 -0.16321,-1.907574 -0.39784,-3.978363 -0.14281,-1.254714 -0.31623,-2.560433 0.20402,-0.448841 0.45905,-0.969089 0.26522,-0.520247 0.49984,-0.979289 0.16322,1.162906 0.40804,3.18269 0.25502,2.019785 0.39784,3.641733 0.18361,2.019784 0.18361,3.050078 z m -7.6609,-10.364146 q 0,0.550851 -0.34683,1.31592 l -0.22442,-0.0408 q 0.0408,-0.377435 0.0408,-0.550851 0,-0.693663 -0.34684,-1.397527 0.19382,-0.387635 0.47945,-0.887481 0.39783,1.20371 0.39783,1.560742 z m 1.45874,2.131995 q 0,0.76507 -0.26523,1.254714 -0.29582,0.550851 -0.81607,0.550851 -0.18362,0 -0.33663,-0.06121 -0.15302,-0.06121 -0.34683,-0.193818 -0.21422,0.367234 -0.39784,0.550851 -0.32643,0.326429 -0.68346,0.326429 -0.42844,0 -0.64266,-0.285626 -0.21422,-0.295827 -0.21422,-0.805873 0,-0.265224 0.0714,-0.520248 0.0714,-0.255023 0.20401,-0.581453 l 0.21422,-0.09181 q 0,0.08161 -0.0204,0.265224 -0.0204,0.183617 -0.0204,0.306028 0,0.22442 0.0918,0.408037 0.0918,0.173416 0.27542,0.173416 0.43864,0 0.70387,-0.571252 0.12241,-0.265224 0.30603,-1.030294 l 0.21422,-0.06121 q 0.0816,0.499846 0.13261,0.612056 0.12241,0.316229 0.40803,0.316229 0.38764,0 0.61206,-0.510046 0.18362,-0.408038 0.18362,-0.846678 l 0.21422,-0.06121 q 0.0408,0.193817 0.0714,0.43864 0.0408,0.234621 0.0408,0.418238 z"
         style="stroke-width:0.52228761"
         id="path3690" />
      <path
         d="m 165.71958,48.887162 q 0,0.816074 -0.29582,1.581144 -0.15302,0.408037 -0.66307,1.295518 l -0.18361,-0.102009 q 0.0306,-0.295827 0.051,-0.683462 0.0306,-0.387636 0.0306,-0.520248 0,-1.060896 -0.17342,-2.95827 -0.16322,-1.907574 -0.39784,-3.978363 -0.14281,-1.254714 -0.31623,-2.560433 0.20402,-0.448841 0.45905,-0.969089 0.26522,-0.520247 0.49984,-0.979289 0.16322,1.162906 0.40804,3.18269 0.25502,2.019785 0.39784,3.641733 0.18361,2.019784 0.18361,3.050078 z"
         style="stroke-width:0.52228761"
         id="path3692" />
      <path
         d="m 162.27167,51.488399 h -5.03926 v -1.774962 h 4.00896 l -1.21391,-8.650389 -0.53045,-0.255023 q 0,-0.703864 0.12241,-1.31592 0.12242,-0.622257 0.36724,-1.20371 l 0.15301,0.11221 q 0,0.591654 0.66306,0.887481 0.51005,0.204019 1.0303,0.408037 0,0.510047 -0.0816,1.0915 -0.0816,0.581453 -0.19382,0.867079 l -0.48964,-0.163215 1.20371,7.99753 z"
         style="stroke-width:0.52228761"
         id="path3694" />
      <path
         d="m 157.95668,51.488399 q 0,1.122103 -0.95889,2.325813 -0.83648,1.060896 -2.08099,1.825966 -1.18331,0.734467 -1.94838,0.734467 -0.70386,0 -1.51994,-0.204018 -0.62225,-0.153014 -1.48933,-0.479444 -0.73447,-0.275425 -1.45874,-0.55085 l 0.17342,-0.408038 q 0.67326,0.132612 1.39753,0.265225 0.73446,0.142813 1.32612,0.142813 1.30572,0 2.72365,-0.836477 1.28531,-0.76507 2.1932,-1.927976 0.90788,-1.173107 0.90788,-2.111592 0,-0.805874 -0.46924,-1.693355 -0.37744,-0.714065 -1.0609,-1.468934 l 0.58145,-1.601546 q 0.83648,0.775271 1.23432,1.550541 0.44884,0.87728 0.44884,1.958579 z"
         style="stroke-width:0.52228761"
         id="path3696" />
      <path
         d="m 147.75575,51.488399 h -11.78208 v -1.774962 h 8.31376 q -1.0405,-0.805873 -1.75456,-1.254714 -0.88748,-0.561051 -1.62195,-0.816075 -0.82627,-0.285626 -1.67295,-0.285626 -0.52025,0 -1.0507,0.07141 0.29583,-0.754869 0.77527,-1.213911 0.69367,-0.66306 1.75456,-0.66306 1.0405,0 2.45843,1.020093 0.70386,0.510046 2.29521,1.938177 1.23431,1.111901 1.67295,1.203709 h 0.61206 z"
         style="stroke-width:0.52228761"
         id="path3698" />
      <path
         d="m 136.67754,51.488399 h -1.0609 q -0.68346,0 -1.54034,-0.306028 -0.98949,-0.357032 -1.74436,-0.979289 -0.59165,0.724266 -1.21391,1.009892 -0.61206,0.275425 -1.79536,0.275425 h -1.59135 v -1.774962 h 1.56074 q 0.92829,0 1.65255,-0.469242 0.56105,-0.367234 1.0201,-1.030294 0.62225,-0.897682 1.53014,-1.560743 0.81607,-0.591654 1.49953,-0.754869 0.70387,1.071098 1.1221,1.927976 0.56106,1.162906 0.56106,1.887172 z m -1.17311,-2.009583 q -0.13261,-0.591654 -0.40804,-1.162906 -0.23462,-0.479444 -0.62225,-0.98949 -0.48965,0.122411 -0.82628,0.459041 -0.22442,0.21422 -0.53045,0.724267 0.36723,0.397836 1.0303,0.714065 0.67326,0.316229 1.26491,0.387635 z"
         style="stroke-width:0.52228761"
         id="path3700" />
      <path
         d="m 128.45559,51.488399 q 0,2.274808 -1.33632,3.345906 -1.43834,1.152705 -4.64143,1.152705 -2.04018,0 -3.12148,-0.714065 -1.18331,-0.785472 -1.18331,-2.40742 0,-0.87728 0.21422,-1.774962 0.21422,-0.897682 0.58145,-1.805565 0.22442,-0.55085 0.77527,-1.693354 l 0.40804,0.183617 q -0.71407,1.468934 -0.94869,2.315611 -0.22442,0.846677 -0.22442,1.550541 0,1.264916 0.89768,1.927976 0.90789,0.65286 2.58084,0.65286 1.92798,0 3.41731,-0.683463 1.84637,-0.846677 1.84637,-2.366616 0,-1.040494 -0.30603,-1.938176 -0.26522,-0.795673 -0.75487,-1.387327 l 0.84668,-2.091191 q 0.54065,0.826276 0.74467,1.683154 0.20402,0.856878 0.20402,2.274807 z m -3.75395,-7.813913 -0.79567,1.479135 -1.65255,-0.856878 0.75487,-1.489336 z"
         style="stroke-width:0.52228761"
         id="path3702" />
      <path
         d="m 110.79777,48.887162 q 0,0.816074 -0.29583,1.581144 -0.15301,0.408037 -0.66306,1.295518 l -0.18361,-0.102009 q 0.0306,-0.295827 0.051,-0.683462 0.0306,-0.387636 0.0306,-0.520248 0,-1.060896 -0.17342,-2.95827 -0.16322,-1.907574 -0.39784,-3.978363 -0.14281,-1.254714 -0.31623,-2.560433 0.20402,-0.448841 0.45905,-0.969089 0.26522,-0.520247 0.49984,-0.979289 0.16322,1.162906 0.40804,3.18269 0.25502,2.019785 0.39784,3.641733 0.18361,2.019784 0.18361,3.050078 z"
         style="stroke-width:0.52228761"
         id="path3704" />
      <path
         d="m 107.34986,51.488399 h -5.03926 v -1.774962 h 4.00896 l -1.21391,-8.650389 -0.53045,-0.255023 q 0,-0.703864 0.12241,-1.31592 0.12242,-0.622257 0.36724,-1.20371 l 0.15301,0.11221 q 0,0.591654 0.66306,0.887481 0.51005,0.204019 1.0303,0.408037 0,0.510047 -0.0816,1.0915 -0.0816,0.581453 -0.19382,0.867079 l -0.48964,-0.163215 1.20371,7.99753 z"
         style="stroke-width:0.52228761"
         id="path3706" />
      <path
         d="m 103.03486,51.488399 q 0,1.122103 -0.95889,2.325813 -0.83647,1.060896 -2.080985,1.825966 -1.183308,0.734467 -1.948378,0.734467 -0.703864,0 -1.519939,-0.204018 -0.622256,-0.153014 -1.489336,-0.479444 -0.734467,-0.275425 -1.458733,-0.55085 l 0.173416,-0.408038 q 0.673262,0.132612 1.397528,0.265225 0.734467,0.142813 1.326121,0.142813 1.305719,0 2.723648,-0.836477 1.285318,-0.76507 2.193198,-1.927976 0.90789,-1.173107 0.90789,-2.111592 0,-0.805874 -0.46925,-1.693355 -0.37743,-0.714065 -1.06089,-1.468934 l 0.58145,-1.601546 q 0.83647,0.775271 1.23431,1.550541 0.44884,0.87728 0.44884,1.958579 z"
         style="stroke-width:0.52228761"
         id="path3708" />
      <path
         d="M 92.833933,51.488399 H 81.051858 v -1.774962 h 8.313759 q -1.040495,-0.805873 -1.75456,-1.254714 -0.887481,-0.561051 -1.621948,-0.816075 -0.826276,-0.285626 -1.672953,-0.285626 -0.520247,0 -1.050696,0.07141 0.295827,-0.754869 0.775271,-1.213911 0.693663,-0.66306 1.75456,-0.66306 1.040495,0 2.458424,1.020093 0.703865,0.510046 2.29521,1.938177 1.234313,1.111901 1.672953,1.203709 h 0.612055 z"
         style="stroke-width:0.52228761"
         id="path3710" />
      <path
         d="m 81.765925,51.488399 h -5.814531 v -1.774962 h 5.069863 q 0,-1.203709 -0.285626,-1.836167 -0.193818,-0.43864 -0.958888,-1.264916 l 0.795673,-1.662751 q 0.734467,0.928284 0.918083,1.448532 0.275426,0.785472 0.275426,2.601237 z m -0.09181,2.019785 -0.754869,1.479135 -1.672952,-0.856879 0.77527,-1.479135 z m -2.325812,0.948686 -0.76507,1.458733 -1.683153,-0.867079 0.795672,-1.468934 z"
         style="stroke-width:0.52228761"
         id="path3712" />
      <path
         d="m 76.665459,51.488399 h -1.213911 q -1.693355,0 -2.95827,0.316229 -1.601546,0.397836 -1.601546,1.142504 0,0.673262 0.22442,1.438332 0.234622,0.765069 0.469243,1.550541 0.244822,0.785472 0.244822,1.438331 0,0.387636 -0.06121,0.703865 -0.05101,0.316228 -0.193818,0.826275 -0.265224,-0.846677 -0.520247,-1.693355 -0.489645,-1.611747 -0.724266,-2.438022 -0.367234,-1.305719 -0.367234,-1.570943 0,-1.305719 0.54065,-1.999383 0.55085,-0.703864 1.683153,-1.040495 0.897682,-0.265224 2.703247,-0.448841 -0.642659,-0.652859 -0.795673,-0.77527 -0.520247,-0.408038 -1.050696,-0.408038 -0.33663,0 -0.642658,0.204019 -0.244823,0.163215 -0.591654,0.561051 l -0.469243,-0.295827 q 0.306028,-0.76507 0.693663,-1.224111 0.642659,-0.754869 1.519939,-0.754869 0.632458,0 1.264915,0.469242 0.520248,0.387636 1.060897,1.081299 0.265224,0.336631 0.785472,1.142504 z"
         style="stroke-width:0.52228761"
         id="path3714" />
    </g>
  </g>
</svg>
